<?xml version="1.0" standalone="no"?>
<!DOCTYPE svg PUBLIC "-//W3C//DTD SVG 20010904//EN"
 "http://www.w3.org/TR/2001/REC-SVG-20010904/DTD/svg10.dtd">
<svg version="1.0" xmlns="http://www.w3.org/2000/svg"
 width="269.000000pt" height="280.000000pt" viewBox="0 0 269.000000 280.000000"
 preserveAspectRatio="xMidYMid meet">

<g transform="translate(0.000000,280.000000) scale(0.100000,-0.100000)"
fill="#000000" stroke="none">
<path d="M1480 2673 c-50 -3 -306 -42 -330 -50 -8 -3 -26 -7 -40 -8 -14 -2
-54 -10 -90 -19 -36 -9 -96 -23 -135 -32 -158 -34 -354 -114 -441 -179 -113
-85 -196 -201 -246 -345 -10 -30 -18 -56 -18 -58 1 -1 -5 -26 -14 -55 -32
-113 -40 -212 -40 -477 1 -255 11 -406 35 -508 40 -167 101 -319 149 -369 11
-13 18 -23 15 -23 -8 0 106 -131 150 -173 113 -109 334 -195 605 -238 36 -5
94 -14 130 -20 251 -40 512 -3 725 104 175 88 320 223 443 412 11 17 67 131
93 190 41 91 75 233 96 400 21 165 22 541 1 655 -57 312 -143 454 -388 637
-136 102 -304 152 -521 156 -74 2 -154 2 -179 0z m-86 -355 c75 -44 249 -169
260 -186 3 -6 32 -14 64 -17 135 -16 178 -31 227 -80 32 -31 45 -57 62 -115
45 -152 40 -221 -17 -277 -27 -27 -29 -32 -19 -64 5 -18 12 -45 15 -59 3 -14
9 -41 14 -60 12 -48 38 -245 46 -355 3 -49 11 -92 17 -94 6 -2 26 -19 46 -37
33 -30 36 -37 35 -86 -1 -95 -5 -98 -147 -98 -75 0 -166 -8 -237 -20 -63 -10
-191 -27 -285 -36 -190 -20 -276 -15 -571 31 -101 16 -200 25 -275 25 -135 0
-140 3 -147 84 -5 64 6 88 57 120 l38 24 6 174 c4 95 11 198 16 228 6 30 12
69 15 87 2 18 12 55 21 83 17 51 17 52 -4 67 -65 45 -79 82 -63 163 14 70 96
230 139 273 30 31 42 35 137 49 102 16 105 17 172 71 117 95 214 146 278 147
18 0 59 -17 100 -42z"/>
<path d="M1615 1405 c-196 -47 -391 -84 -480 -90 -81 -6 -248 6 -299 21 -18 6
-19 1 -12 -97 4 -57 9 -125 12 -150 6 -46 6 -46 58 -59 78 -19 282 -24 393
-11 183 23 499 95 526 120 4 4 -7 72 -24 149 -38 164 -21 153 -174 117z m74
-87 c6 -16 5 -30 -5 -45 -13 -20 -11 -24 16 -43 34 -24 37 -35 14 -44 -9 -4
-28 4 -46 19 -43 36 -60 33 -53 -9 5 -25 3 -35 -10 -39 -18 -7 -17 -9 -44 90
l-20 73 32 9 c18 5 49 10 70 10 30 1 39 -3 46 -21z m-170 -93 c43 -62 49 -76
36 -81 -9 -4 -24 1 -34 10 -25 23 -69 11 -81 -20 -11 -28 -44 -34 -36 -6 3 9
8 44 12 77 13 119 33 122 103 20z m-171 29 c33 -23 17 -36 -34 -28 -39 6 -44
4 -54 -18 -13 -28 1 -75 25 -85 21 -7 68 14 60 27 -3 6 -15 10 -26 10 -29 0
-24 30 6 32 14 0 30 1 37 2 13 1 29 -49 22 -68 -7 -19 -50 -36 -88 -36 -37 0
-60 20 -77 68 -26 74 64 142 129 96z m-334 -4 c16 -6 26 -17 26 -30 0 -24 -17
-26 -41 -4 -11 10 -25 14 -35 10 -21 -8 -11 -20 37 -44 25 -12 35 -25 37 -45
5 -39 -14 -57 -59 -57 -41 0 -79 27 -79 55 0 22 29 18 49 -7 11 -13 24 -19 34
-15 27 10 20 25 -23 47 -33 17 -40 26 -40 50 0 44 40 61 94 40z m88 -67 c3
-66 4 -68 31 -71 l27 -3 0 70 c0 64 2 71 20 71 18 0 20 -7 20 -75 0 -68 -2
-76 -25 -91 -18 -11 -35 -14 -60 -10 -44 9 -55 33 -55 117 0 52 2 59 20 59 17
0 19 -8 22 -67z"/>
<path d="M1607 1303 c-17 -4 -21 -35 -4 -34 4 1 16 1 27 1 13 0 20 7 20 20 0
20 -8 22 -43 13z"/>
<path d="M1455 1220 c-8 -26 -5 -29 17 -21 14 5 15 9 3 24 -13 18 -14 17 -20
-3z"/>
</g>
</svg>
